# xmcd
#
# Track frame offsets:
# 150
# 37901
# 63300
# 74241
# 104720
# 136305
# 152601
# 172925
# 184648
# 212175
# 223412
# 248639
# 268673
# 290497
#
# Disc length: 4308 seconds
#
# Revision: 0
# Processed by: cddbd v1.5.1PL2 Copyright (c) Steve Scherf et al.
# Submitted via: Audion 3.0.2 (http://www.panic.com/audion/)
#
DISCID=dc10d20e
DTITLE=Live at Fillmore West - King Curtis
DYEAR=1900
DGENRE=
TTITLE0=Memphis Soul Stew
TTITLE1=A Whiter Shade of Pale
TTITLE2=Whole Lotta Love
TTITLE3=I Stand Accused
TTITLE4=Them Changes
TTITLE5=Ode to Billie Joe
TTITLE6=Mr. Bojangles
TTITLE7=Signed, Sealed, Delivered (I'm Yours)
TTITLE8=Soul Serenade
TTITLE9=My Sweet Lord (with Billy Preston)*
TTITLE10=Them Changes*
TTITLE11=Ode to Billie Joe*
TTITLE12=Soul Serenade*
TTITLE13=Memphis Soul Stew*
EXTD=
EXTT0=
EXTT1=
EXTT2=
EXTT3=
EXTT4=
EXTT5=
EXTT6=
EXTT7=
EXTT8=
EXTT9=
EXTT10=
EXTT11=
EXTT12=
EXTT13=
PLAYORDER=
